<svg id="compass" xmlns="http://www.w3.org/2000/svg" width="37.784" height="37.784" viewBox="0 0 37.784 37.784">
  <path id="Path_6" data-name="Path 6" d="M18.888,0a18.892,18.892,0,1,0,18.9,18.888A18.909,18.909,0,0,0,18.888,0Zm.765,36.253V34.822a.756.756,0,0,0-1.512,0v1.432a17.4,17.4,0,0,1-16.61-16.6H2.962a.756.756,0,0,0,0-1.512H1.53a17.4,17.4,0,0,1,16.6-16.61V2.962a.756.756,0,0,0,1.511,0V1.53a17.4,17.4,0,0,1,16.61,16.6H34.822a.756.756,0,1,0,0,1.511h1.432A17.4,17.4,0,0,1,19.652,36.253Zm0,0" fill="#fff"/>
  <path id="Path_7" data-name="Path 7" d="M140.541,123.6a.756.756,0,0,0-.865-.146l-10.686,5.193a.771.771,0,0,0-.349.349l-5.193,10.686a.756.756,0,0,0,1.011,1.01l10.686-5.192a.628.628,0,0,0,.349-.349l5.192-10.686A.755.755,0,0,0,140.541,123.6Zm-14.778,14.778,3.774-7.766,3.992,3.992Zm8.835-4.843-3.993-3.992,7.766-3.774Zm0,0" transform="translate(-113.176 -113.179)" fill="#fff"/>
</svg>
