<svg id="Layer_1" data-name="Layer 1" xmlns="http://www.w3.org/2000/svg" viewBox="0 0 949.24 110.1">
  <defs>
    <style>
      .cls-1 {
        fill: #333;
      }
    </style>
  </defs>
  <title>newlogo</title>
  <path class="cls-1" d="M1079.22,405.59q-5.82-7.44-11.57-14.94L1035.6,433h2.54l27.49,0,17.24-22.79Z" transform="translate(-204.58 -323)"/>
  <g>
    <path d="M258.13,389.6h34.95a32.32,32.32,0,0,1-11.18,17.25q-8.17,6.45-20.47,6.45a38.47,38.47,0,0,1-14.7-2.75,35.56,35.56,0,0,1-11.63-7.5,34,34,0,0,1-7.57-11.13,35.85,35.85,0,0,1,0-27.3,33.94,33.94,0,0,1,7.57-11.12,37.24,37.24,0,0,1,11.4-7.58,35.37,35.37,0,0,1,14.18-2.82,37.92,37.92,0,0,1,18.67,4.37,34.61,34.61,0,0,1,13,13l18-9.79a53.62,53.62,0,0,0-19.88-19.75,56.44,56.44,0,0,0-13.87-5.63,62.68,62.68,0,0,0-16.05-2,57.3,57.3,0,0,0-22.43,4.32,54.94,54.94,0,0,0-17.7,11.71,53.48,53.48,0,0,0-11.62,17.42,56.88,56.88,0,0,0-.15,42.53,52.74,52.74,0,0,0,11.55,17.5,55.11,55.11,0,0,0,18,11.93,59.64,59.64,0,0,0,23.25,4.39,53.83,53.83,0,0,0,22.2-4.43,51.17,51.17,0,0,0,16.87-11.92,52.42,52.42,0,0,0,10.73-17.48A59.32,59.32,0,0,0,315,378.2v-8.1H258.13Z" transform="translate(-204.58 -323)"/>
    <path d="M417.5,378.39a41.93,41.93,0,0,0-10.2-5.83q-5.62-2.26-11.17-4l-8.55-2.77a42.15,42.15,0,0,1-7.13-3,16.46,16.46,0,0,1-4.87-3.86,8.22,8.22,0,0,1-1.8-5.4,11.1,11.1,0,0,1,3.9-8.59q3.9-3.49,11.4-3.5,12.75,0,19.8,10.82l16.8-13.07a69.89,69.89,0,0,0-7-6.38,41.55,41.55,0,0,0-8.1-5,46.54,46.54,0,0,0-9.75-3.3,54.34,54.34,0,0,0-11.92-1.2,43.75,43.75,0,0,0-14.48,2.33,36.07,36.07,0,0,0-11.55,6.48,29.81,29.81,0,0,0-7.57,9.69,26.87,26.87,0,0,0-2.7,11.94,25.82,25.82,0,0,0,2.77,12.6,27.23,27.23,0,0,0,7.2,8.45,37.17,37.17,0,0,0,10,5.46q5.55,2,11.1,3.78c2.9.88,5.72,1.75,8.47,2.63a44,44,0,0,1,7.28,3,16.82,16.82,0,0,1,5.1,4,8.55,8.55,0,0,1,2,5.68,13.79,13.79,0,0,1-4.28,9.9q-4.27,4.36-12.37,4.37A26.27,26.27,0,0,1,376.18,410a30.39,30.39,0,0,1-10.35-10.51l-18.6,14a66.66,66.66,0,0,0,17.7,14q10.2,5.63,25.05,5.62a42.73,42.73,0,0,0,16-2.84,36.76,36.76,0,0,0,11.85-7.43,31.68,31.68,0,0,0,7.35-10.57A30.88,30.88,0,0,0,427.78,400a26.46,26.46,0,0,0-2.85-12.89A28.25,28.25,0,0,0,417.5,378.39Z" transform="translate(-204.58 -323)"/>
    <rect x="263.7" y="0.45" width="20.4" height="109.5"/>
    <path d="M582.58,389.6h34.95a32.38,32.38,0,0,1-11.18,17.25q-8.18,6.45-20.47,6.45a38.43,38.43,0,0,1-14.7-2.75,35.56,35.56,0,0,1-11.63-7.5A34,34,0,0,1,552,391.92a35.85,35.85,0,0,1,0-27.3,33.94,33.94,0,0,1,7.57-11.12,37.24,37.24,0,0,1,11.4-7.58,35.37,35.37,0,0,1,14.18-2.82,37.92,37.92,0,0,1,18.67,4.37,34.61,34.61,0,0,1,13,13l18-9.79a53.62,53.62,0,0,0-19.88-19.75A56.59,56.59,0,0,0,601,325.28a62.74,62.74,0,0,0-16-2,57.3,57.3,0,0,0-22.43,4.32,54.94,54.94,0,0,0-17.7,11.71,53.32,53.32,0,0,0-11.62,17.42A54.81,54.81,0,0,0,529,378.2a55.4,55.4,0,0,0,4.05,21.08,52.59,52.59,0,0,0,11.55,17.5,54.9,54.9,0,0,0,18,11.93,59.61,59.61,0,0,0,23.25,4.39,53.86,53.86,0,0,0,22.2-4.43A51.17,51.17,0,0,0,625,416.75a52.59,52.59,0,0,0,10.73-17.48,59.55,59.55,0,0,0,3.75-21.07v-8.1H582.58Z" transform="translate(-204.58 -323)"/>
    <polygon points="544.95 75 497.55 0.45 474.45 0.45 474.45 109.95 494.85 109.95 494.85 33 543.6 109.95 565.35 109.95 565.35 0.45 544.95 0.45 544.95 75"/>
    <polygon points="640.66 0.45 598.9 109.95 621.7 109.95 628.93 90.45 636.32 70.95 651.74 29.4 667.16 70.95 674.39 90.45 681.62 109.95 704.42 109.95 662.66 0.45 640.66 0.45"/>
    <polygon points="761.4 0.45 741 0.45 741 109.95 801.45 109.95 801.45 90.45 761.4 90.45 761.4 0.45"/>
    <path d="M1108.92,375.55,1149,323H1035.7l5.39,7.07L1093,396.48l28.59,36.62c8.43-.09,21.53-.11,32.27-.07Z" transform="translate(-204.58 -323)"/>
  </g>
</svg>
