<svg xmlns="http://www.w3.org/2000/svg" width="626.062" height="656.098" viewBox="0 0 626.062 656.098" fill="#fff">
  <path id="museum" d="M313.031.5,0,148.01V286.149H46.872V539.5H0V656.6H626.062V539.5H579.19V286.149h46.872V148.01ZM589.379,246.971H36.683V194.295h552.7Zm0,370.449H36.683V578.68h552.7ZM83.555,286.149h54.619V539.5H83.555Zm91.3,0h74.183V539.5H174.857Zm202.164,0H451.2V539.5H377.021ZM340.338,539.5H285.724V286.149h54.614Zm147.55,0V286.149h54.619V539.5ZM75.788,155.116l237.243-111.8,237.243,111.8Zm0,0" transform="translate(0 -0.5)" opacity="0.1"/>
</svg>
