<svg xmlns="http://www.w3.org/2000/svg" width="462.991" height="452.908" viewBox="0 0 462.991 452.908" fill="#fff">
  <path id="Path_12" data-name="Path 12" d="M312.519,279.293c44.37-26.42,73.306-73.6,73.306-128.323C385.826,67.936,316.376,0,231.5,0S77.165,67.936,77.165,150.97c0,54.726,28.936,101.9,73.306,128.323C73.306,307.6,15.432,373.649,0,452.908H38.583C57.874,366.1,136.969,301.939,231.5,301.939S405.117,366.1,424.408,452.908h38.583A228.753,228.753,0,0,0,312.519,279.293ZM115.748,150.97c0-62.274,52.087-113.227,115.748-113.227S347.243,88.7,347.243,150.97,295.156,264.2,231.5,264.2,115.748,213.244,115.748,150.97Z" opacity="0.1"/>
</svg>
